<svg width="250" height="39" viewBox="0 0 250 39" fill="none" xmlns="http://www.w3.org/2000/svg">
<path d="M2.98023e-08 30H9.76V12.64L15.64 30H21.44L27.32 12.64V30H37.68V23.4H34.88V8.2H37.68V1.6H24.2L18.84 17.4L13.48 1.6H2.98023e-08V8.2H2.8V23.4H2.98023e-08V30ZM51.3384 31C56.8584 31 61.4184 27.88 62.7384 23.2H55.5384C54.6984 24.32 53.1384 25.08 51.4984 25.08C49.2184 25.08 47.1784 23.64 46.8984 21.36H63.0584C63.2184 20.12 63.2184 19.52 63.2184 18.56C63.2184 11.88 58.5784 7.2 51.6184 7.2C44.5784 7.2 39.8984 11.96 39.8984 19.12C39.8984 26.2 44.4984 31 51.3384 31ZM46.8984 16.72C47.3384 14.56 49.2584 13.12 51.6584 13.12C54.0984 13.12 55.9784 14.56 56.3384 16.72H46.8984ZM67.625 30H76.865V23.4H74.265V14H76.865V8.2H74.265V1.6H67.625V8.2H65.025V14H67.625V30ZM90.1097 31C93.1897 31 95.1897 29.72 96.7097 27.76V30H105.95V23.4H103.35V14H105.95V8.2H96.7097V10.44C95.1097 8.48 93.0297 7.2 89.9497 7.2C84.0697 7.2 79.4297 11.92 79.4297 19.04C79.4297 26.2 84.1497 31 90.1097 31ZM91.5097 24.68C88.3497 24.68 86.2297 22.44 86.2297 19.08C86.2297 15.76 88.3497 13.52 91.5097 13.52C94.6297 13.52 96.7097 15.76 96.7097 19.08C96.7097 22.44 94.6297 24.68 91.5097 24.68ZM130.35 31C135.79 31 139.75 27.48 139.75 21.92C139.75 11.12 126.51 13.92 126.51 9.16C126.51 7.84 127.55 6.92 129.07 6.92C130.95 6.92 132.19 8.32 132.19 10.44H139.31V1.6H134.71V3.08C133.31 1.6 130.67 0.599999 127.91 0.599999C122.67 0.599999 118.99 4.16 118.99 9.44C118.99 19.52 132.23 17.16 132.23 22C132.23 23.52 130.99 24.68 129.15 24.68C126.59 24.68 124.87 22.88 124.87 20.2H118.55V30H123.15V28.48C124.95 30.04 127.59 31 130.35 31ZM142.252 38.4H151.492V27.76C153.012 29.72 155.012 31 158.092 31C164.052 31 168.772 26.2 168.772 19.04C168.772 11.92 164.132 7.2 158.252 7.2C155.172 7.2 153.092 8.48 151.492 10.44V8.2H142.252V14H144.852V31.8H142.252V38.4ZM156.492 24.68C153.252 24.68 151.092 22.44 151.092 19.08C151.092 15.76 153.252 13.52 156.492 13.52C159.772 13.52 161.972 15.76 161.972 19.08C161.972 22.44 159.772 24.68 156.492 24.68ZM182.718 31C189.878 31 194.678 26.24 194.678 19.08C194.678 11.96 189.878 7.2 182.718 7.2C175.558 7.2 170.758 11.96 170.758 19.08C170.758 26.24 175.558 31 182.718 31ZM182.718 24.68C179.638 24.68 177.558 22.44 177.558 19.08C177.558 15.76 179.638 13.52 182.718 13.52C185.798 13.52 187.878 15.76 187.878 19.08C187.878 22.44 185.798 24.68 182.718 24.68ZM196.709 30H205.949V18.4C205.949 16 207.029 14.4 209.029 14.4C209.669 14.4 210.789 14.56 211.749 14.8V8.2C211.189 8.08 210.669 8.04 210.229 8.04C207.989 8.04 206.629 9.12 205.549 10.84V8.2H196.709V14H199.309V23.4H196.709V30ZM216.531 30H225.771V23.4H223.171V14H225.771V8.2H223.171V1.6H216.531V8.2H213.931V14H216.531V30ZM249.168 8.2H229.448V16.6H235.448V14H240.048L229.448 26.04V30H249.168V20.8H243.168V23.4H239.328L249.168 12.64V8.2Z" fill="white"/>
</svg>
